{
	"patcher" : 	{
		"fileversion" : 1,
		"appversion" : 		{
			"major" : 8,
			"minor" : 1,
			"revision" : 1,
			"architecture" : "x64",
			"modernui" : 1
		}
,
		"classnamespace" : "box",
		"rect" : [ 135.0, 79.0, 1271.0, 787.0 ],
		"bglocked" : 0,
		"openinpresentation" : 1,
		"default_fontsize" : 12.0,
		"default_fontface" : 0,
		"default_fontname" : "Arial",
		"gridonopen" : 1,
		"gridsize" : [ 15.0, 15.0 ],
		"gridsnaponopen" : 1,
		"objectsnaponopen" : 1,
		"statusbarvisible" : 2,
		"toolbarvisible" : 1,
		"lefttoolbarpinned" : 0,
		"toptoolbarpinned" : 0,
		"righttoolbarpinned" : 0,
		"bottomtoolbarpinned" : 0,
		"toolbars_unpinned_last_save" : 0,
		"tallnewobj" : 0,
		"boxanimatetime" : 200,
		"enablehscroll" : 1,
		"enablevscroll" : 1,
		"devicewidth" : 0.0,
		"description" : "",
		"digest" : "",
		"tags" : "",
		"style" : "",
		"subpatcher_template" : "",
		"boxes" : [ 			{
				"box" : 				{
					"id" : "obj-70",
					"maxclass" : "newobj",
					"numinlets" : 1,
					"numoutlets" : 1,
					"outlettype" : [ "" ],
					"patching_rect" : [ 1139.0, 58.0, 84.0, 22.0 ],
					"text" : "loadmess -48."
				}

			}
, 			{
				"box" : 				{
					"id" : "obj-68",
					"maxclass" : "newobj",
					"numinlets" : 1,
					"numoutlets" : 1,
					"outlettype" : [ "" ],
					"patching_rect" : [ 1031.5, 58.0, 84.0, 22.0 ],
					"text" : "loadmess -30."
				}

			}
, 			{
				"box" : 				{
					"id" : "obj-56",
					"maxclass" : "comment",
					"numinlets" : 1,
					"numoutlets" : 0,
					"patching_rect" : [ 1000.767823000000021, 362.732192499999996, 208.868978999999968, 20.0 ],
					"presentation" : 1,
					"presentation_rect" : [ 35.43447900000001, 339.0, 208.868978999999968, 20.0 ],
					"text" : "Perc ADSR (not currently working)"
				}

			}
, 			{
				"box" : 				{
					"fontname" : "Arial",
					"fontsize" : 13.0,
					"id" : "obj-59",
					"linecount" : 2,
					"maxclass" : "comment",
					"numinlets" : 1,
					"numoutlets" : 0,
					"patching_rect" : [ 1000.767823000000021, 384.232182500000022, 47.0, 36.0 ],
					"presentation" : 1,
					"presentation_linecount" : 2,
					"presentation_rect" : [ 35.43447900000001, 360.499990000000025, 47.0, 36.0 ],
					"text" : "attack time",
					"textcolor" : [ 0.501961, 0.501961, 0.501961, 1.0 ],
					"textjustification" : 1
				}

			}
, 			{
				"box" : 				{
					"fontname" : "Arial",
					"fontsize" : 13.0,
					"id" : "obj-60",
					"linecount" : 2,
					"maxclass" : "comment",
					"numinlets" : 1,
					"numoutlets" : 0,
					"patching_rect" : [ 1054.490052000000105, 384.232182500000022, 48.0, 36.0 ],
					"presentation" : 1,
					"presentation_linecount" : 2,
					"presentation_rect" : [ 89.156707999999981, 360.499990000000025, 48.0, 36.0 ],
					"text" : "decay time",
					"textcolor" : [ 0.501961, 0.501961, 0.501961, 1.0 ],
					"textjustification" : 1
				}

			}
, 			{
				"box" : 				{
					"fontname" : "Arial",
					"fontsize" : 13.0,
					"id" : "obj-61",
					"linecount" : 2,
					"maxclass" : "comment",
					"numinlets" : 1,
					"numoutlets" : 0,
					"patching_rect" : [ 1105.701172000000042, 384.232182500000022, 53.0, 36.0 ],
					"presentation" : 1,
					"presentation_linecount" : 2,
					"presentation_rect" : [ 140.367827999999918, 360.499990000000025, 53.0, 36.0 ],
					"text" : "sustain gain ",
					"textcolor" : [ 0.501961, 0.501961, 0.501961, 1.0 ],
					"textjustification" : 1
				}

			}
, 			{
				"box" : 				{
					"fontname" : "Arial",
					"fontsize" : 13.0,
					"id" : "obj-62",
					"linecount" : 2,
					"maxclass" : "comment",
					"numinlets" : 1,
					"numoutlets" : 0,
					"patching_rect" : [ 1158.434510000000046, 384.232182500000022, 55.0, 36.0 ],
					"presentation" : 1,
					"presentation_linecount" : 2,
					"presentation_rect" : [ 193.101165999999921, 360.499990000000025, 55.0, 36.0 ],
					"text" : "release time",
					"textcolor" : [ 0.501961, 0.501961, 0.501961, 1.0 ],
					"textjustification" : 1
				}

			}
, 			{
				"box" : 				{
					"floatoutput" : 1,
					"id" : "obj-63",
					"maxclass" : "dial",
					"mult" : 0.01,
					"numinlets" : 1,
					"numoutlets" : 1,
					"outlettype" : [ "float" ],
					"parameter_enable" : 0,
					"patching_rect" : [ 1116.933350000000246, 419.732182500000022, 30.535634999999999, 30.535634999999999 ],
					"presentation" : 1,
					"presentation_rect" : [ 143.367829000000029, 398.499990000000025, 47.0, 47.0 ],
					"size" : 100.0
				}

			}
, 			{
				"box" : 				{
					"id" : "obj-64",
					"maxclass" : "dial",
					"mult" : 10.0,
					"numinlets" : 1,
					"numoutlets" : 1,
					"outlettype" : [ "float" ],
					"parameter_enable" : 0,
					"patching_rect" : [ 1170.666688000000249, 419.732182500000022, 30.535634999999999, 30.535634999999999 ],
					"presentation" : 1,
					"presentation_rect" : [ 197.101167000000032, 398.499990000000025, 47.0, 47.0 ],
					"size" : 200.0
				}

			}
, 			{
				"box" : 				{
					"id" : "obj-65",
					"maxclass" : "dial",
					"mult" : 10.0,
					"numinlets" : 1,
					"numoutlets" : 1,
					"outlettype" : [ "float" ],
					"parameter_enable" : 0,
					"patching_rect" : [ 1063.22222899999997, 419.732182500000022, 30.535634999999999, 30.535634999999999 ],
					"presentation" : 1,
					"presentation_rect" : [ 89.656708000000094, 398.499990000000025, 47.0, 47.000000000000028 ],
					"size" : 100.0
				}

			}
, 			{
				"box" : 				{
					"id" : "obj-66",
					"maxclass" : "dial",
					"mult" : 10.0,
					"numinlets" : 1,
					"numoutlets" : 1,
					"outlettype" : [ "float" ],
					"parameter_enable" : 0,
					"patching_rect" : [ 1009.0, 419.732182500000022, 30.535634999999999, 30.535634999999999 ],
					"presentation" : 1,
					"presentation_rect" : [ 35.43447900000001, 398.499990000000025, 47.0, 47.000000000000028 ],
					"size" : 200.0
				}

			}
, 			{
				"box" : 				{
					"format" : 6,
					"id" : "obj-55",
					"maxclass" : "flonum",
					"numinlets" : 1,
					"numoutlets" : 2,
					"outlettype" : [ "", "bang" ],
					"parameter_enable" : 0,
					"patching_rect" : [ 1142.0, 102.499990000000025, 50.0, 22.0 ],
					"presentation" : 1,
					"presentation_rect" : [ 143.367829000000029, 458.49998000000005, 50.0, 22.0 ]
				}

			}
, 			{
				"box" : 				{
					"format" : 6,
					"id" : "obj-52",
					"maxclass" : "flonum",
					"numinlets" : 1,
					"numoutlets" : 2,
					"outlettype" : [ "", "bang" ],
					"parameter_enable" : 0,
					"patching_rect" : [ 1031.5, 106.499990000000025, 50.0, 22.0 ],
					"presentation" : 1,
					"presentation_rect" : [ 36.0, 458.499990000000025, 50.0, 22.0 ]
				}

			}
, 			{
				"box" : 				{
					"id" : "obj-48",
					"maxclass" : "newobj",
					"numinlets" : 7,
					"numoutlets" : 1,
					"outlettype" : [ "multichannelsignal" ],
					"patching_rect" : [ 948.0, 493.0, 225.0, 22.0 ],
					"text" : "mc.poly~ percussionSlice 16 @chans 16"
				}

			}
, 			{
				"box" : 				{
					"id" : "obj-44",
					"maxclass" : "newobj",
					"numinlets" : 1,
					"numoutlets" : 1,
					"outlettype" : [ "bang" ],
					"patching_rect" : [ 885.0, 136.0, 58.0, 22.0 ],
					"text" : "loadbang"
				}

			}
, 			{
				"box" : 				{
					"id" : "obj-46",
					"maxclass" : "message",
					"numinlets" : 2,
					"numoutlets" : 1,
					"outlettype" : [ "" ],
					"patching_rect" : [ 885.0, 168.0, 111.0, 22.0 ],
					"text" : "spreadinclusive 0 1"
				}

			}
, 			{
				"box" : 				{
					"id" : "obj-47",
					"maxclass" : "newobj",
					"numinlets" : 1,
					"numoutlets" : 1,
					"outlettype" : [ "multichannelsignal" ],
					"patching_rect" : [ 885.0, 202.0, 134.0, 22.0 ],
					"text" : "mc.sig~ 0.5 @chans 16"
				}

			}
, 			{
				"box" : 				{
					"id" : "obj-40",
					"maxclass" : "newobj",
					"numinlets" : 2,
					"numoutlets" : 1,
					"outlettype" : [ "multichannelsignal" ],
					"patching_rect" : [ 948.0, 527.0, 275.0, 22.0 ],
					"text" : "mc.mixdown~ 2 @autogain 1 @pancontrolmode 1"
				}

			}
, 			{
				"box" : 				{
					"id" : "obj-39",
					"maxclass" : "message",
					"numinlets" : 2,
					"numoutlets" : 1,
					"outlettype" : [ "" ],
					"patching_rect" : [ 1142.0, 134.0, 91.0, 22.0 ],
					"presentation" : 1,
					"presentation_rect" : [ 143.367829000000029, 489.999990000000025, 91.0, 22.0 ],
					"text" : "absthreshoff $1"
				}

			}
, 			{
				"box" : 				{
					"id" : "obj-36",
					"maxclass" : "message",
					"numinlets" : 2,
					"numoutlets" : 1,
					"outlettype" : [ "" ],
					"patching_rect" : [ 1031.5, 137.999990000000025, 91.0, 22.0 ],
					"presentation" : 1,
					"presentation_rect" : [ 36.0, 489.999990000000025, 91.0, 22.0 ],
					"text" : "absthreshon $1"
				}

			}
, 			{
				"box" : 				{
					"bgcolor" : [ 0.886274509803922, 0.392156862745098, 0.835294117647059, 0.83 ],
					"fontsize" : 30.0,
					"id" : "obj-38",
					"linecount" : 2,
					"maxclass" : "comment",
					"numinlets" : 1,
					"numoutlets" : 0,
					"patching_rect" : [ 646.0, -9.0, 361.0, 74.0 ],
					"presentation" : 1,
					"presentation_rect" : [ 2.0, 1.0, 576.0, 40.0 ],
					"text" : "VG - Performance Environment Version 3",
					"textcolor" : [ 0.47843137254902, 0.043137254901961, 0.27843137254902, 1.0 ]
				}

			}
, 			{
				"box" : 				{
					"id" : "obj-34",
					"maxclass" : "comment",
					"numinlets" : 1,
					"numoutlets" : 0,
					"patching_rect" : [ 280.267823000000021, 373.499990000000025, 216.0, 20.0 ],
					"presentation" : 1,
					"presentation_rect" : [ 35.43447900000001, 228.499990000000025, 218.868978999999968, 20.0 ],
					"text" : "Transient ADSR (not currently working)"
				}

			}
, 			{
				"box" : 				{
					"bgcolor" : [ 0.603921568627451, 0.952941176470588, 0.96078431372549, 1.0 ],
					"bgcolor2" : [ 0.603921568627451, 0.952941176470588, 0.96078431372549, 1.0 ],
					"bgfillcolor_angle" : 270.0,
					"bgfillcolor_autogradient" : 0.0,
					"bgfillcolor_color" : [ 0.203921568627451, 0.772549019607843, 0.682352941176471, 1.0 ],
					"bgfillcolor_color1" : [ 0.603921568627451, 0.952941176470588, 0.96078431372549, 1.0 ],
					"bgfillcolor_color2" : [ 0.2, 0.2, 0.2, 1.0 ],
					"bgfillcolor_proportion" : 0.5,
					"bgfillcolor_type" : "color",
					"fontsize" : 24.0,
					"gradient" : 1,
					"id" : "obj-33",
					"maxclass" : "message",
					"numinlets" : 2,
					"numoutlets" : 1,
					"outlettype" : [ "" ],
					"patching_rect" : [ 128.0, 73.0, 62.0, 35.0 ],
					"presentation" : 1,
					"presentation_rect" : [ 155.0, 82.0, 62.0, 35.0 ],
					"text" : "open",
					"textcolor" : [ 0.47843137254902, 0.996078431372549, 0.313725490196078, 1.0 ]
				}

			}
, 			{
				"box" : 				{
					"id" : "obj-31",
					"maxclass" : "comment",
					"numinlets" : 1,
					"numoutlets" : 0,
					"patching_rect" : [ 606.43447900000001, 293.0, 208.868978999999968, 20.0 ],
					"presentation" : 1,
					"presentation_rect" : [ 35.43447900000001, 119.0, 208.868978999999968, 20.0 ],
					"text" : "Groove ADSR (not currently working)"
				}

			}
, 			{
				"box" : 				{
					"autosave" : 1,
					"bgmode" : 1,
					"border" : 0,
					"clickthrough" : 0,
					"enablehscroll" : 0,
					"enablevscroll" : 0,
					"id" : "obj-45",
					"linecount" : 3,
					"lockeddragscroll" : 0,
					"maxclass" : "newobj",
					"numinlets" : 3,
					"numoutlets" : 4,
					"offset" : [ 0.0, 0.0 ],
					"outlettype" : [ "signal", "signal", "", "" ],
					"patching_rect" : [ 524.0, 611.0, 369.0, 196.0 ],
					"presentation" : 1,
					"presentation_linecount" : 3,
					"presentation_rect" : [ 301.0, 367.0, 369.0, 196.0 ],
					"saved_attribute_attributes" : 					{
						"valueof" : 						{
							"parameter_invisible" : 1,
							"parameter_longname" : "amxd~",
							"parameter_shortname" : "amxd~",
							"parameter_type" : 3
						}

					}
,
					"saved_object_attributes" : 					{
						"parameter_enable" : 1,
						"patchername" : "Convolution Reverb.amxd",
						"patchername_fallback" : "~/GitHub/PE3/VG.PE3/patchers/Convolution Reverb.amxd"
					}
,
					"snapshot" : 					{
						"filetype" : "C74Snapshot",
						"version" : 2,
						"minorversion" : 0,
						"name" : "snapshotlist",
						"origin" : "max~",
						"type" : "list",
						"subtype" : "Undefined",
						"embed" : 1,
						"snapshot" : 						{
							"name" : "Convolution Reverb.amxd",
							"origname" : "~/GitHub/PE3/VG.PE3/patchers/Convolution Reverb.amxd",
							"valuedictionary" : 							{
								"parameter_values" : 								{
									"Dry/Wet" : 27.952755905511818,
									"Gain" : 0.0,
									"Predelay" : 0.0,
									"Width" : 100.0,
									"blob" : 									{
										"Decay" : [ 100 ],
										"Drop A" : [ "Macintosh HD:/Users/vin/Music/Ableton/Factory Packs/Max for Live Essentials/Max Audio Effect/Convolution Reverb/IRs/06 Bigger Spaces/BM7 West Church.aif" ],
										"PersistenceA" : [ "" ],
										"PersistenceB" : [ "" ],
										"PersistenceC" : [ "" ],
										"Size" : [ 100 ]
									}

								}

							}

						}
,
						"snapshotlist" : 						{
							"current_snapshot" : 0,
							"entries" : [ 								{
									"filetype" : "C74Snapshot",
									"version" : 2,
									"minorversion" : 0,
									"name" : "Convolution Reverb.amxd",
									"origin" : "Convolution Reverb.amxd",
									"type" : "amxd",
									"subtype" : "Undefined",
									"embed" : 0,
									"snapshot" : 									{
										"name" : "Convolution Reverb.amxd",
										"origname" : "~/GitHub/PE3/VG.PE3/patchers/Convolution Reverb.amxd",
										"valuedictionary" : 										{
											"parameter_values" : 											{
												"Dry/Wet" : 27.952755905511818,
												"Gain" : 0.0,
												"Predelay" : 0.0,
												"Width" : 100.0,
												"blob" : 												{
													"Decay" : [ 100 ],
													"Drop A" : [ "Macintosh HD:/Users/vin/Music/Ableton/Factory Packs/Max for Live Essentials/Max Audio Effect/Convolution Reverb/IRs/06 Bigger Spaces/BM7 West Church.aif" ],
													"PersistenceA" : [ "" ],
													"PersistenceB" : [ "" ],
													"PersistenceC" : [ "" ],
													"Size" : [ 100 ]
												}

											}

										}

									}
,
									"fileref" : 									{
										"name" : "Convolution Reverb.amxd",
										"filename" : "Convolution Reverb.amxd.maxsnap",
										"filepath" : "~/GitHub/PE3/VG.PE3/data",
										"filepos" : -1,
										"snapshotfileid" : "e677add80100297ac35d82d60e15cb9a"
									}

								}
 ]
						}

					}
,
					"text" : "amxd~ \"/Users/vin/Music/Ableton/Factory Packs/Max for Live Essentials/Max Audio Effect/Convolution Reverb/Convolution Reverb.amxd\"",
					"varname" : "amxd~",
					"viewvisibility" : 1
				}

			}
, 			{
				"box" : 				{
					"id" : "obj-10",
					"maxclass" : "newobj",
					"numinlets" : 4,
					"numoutlets" : 4,
					"outlettype" : [ "", "", "", "" ],
					"patching_rect" : [ 217.599999999999994, 216.0, 70.0, 22.0 ],
					"text" : "route -1 1 9"
				}

			}
, 			{
				"box" : 				{
					"id" : "obj-2",
					"maxclass" : "newobj",
					"numinlets" : 8,
					"numoutlets" : 1,
					"outlettype" : [ "" ],
					"patching_rect" : [ 217.599999999999994, 186.0, 92.5, 22.0 ],
					"text" : "pak i l i i i i i i"
				}

			}
, 			{
				"box" : 				{
					"id" : "obj-29",
					"maxclass" : "newobj",
					"numinlets" : 2,
					"numoutlets" : 1,
					"outlettype" : [ "multichannelsignal" ],
					"patching_rect" : [ 240.0, 545.0, 275.0, 22.0 ],
					"text" : "mc.mixdown~ 2 @autogain 1 @pancontrolmode 1"
				}

			}
, 			{
				"box" : 				{
					"fontname" : "Arial",
					"fontsize" : 13.0,
					"id" : "obj-14",
					"linecount" : 2,
					"maxclass" : "comment",
					"numinlets" : 1,
					"numoutlets" : 0,
					"patching_rect" : [ 280.267823000000021, 395.499990000000025, 47.0, 36.0 ],
					"presentation" : 1,
					"presentation_linecount" : 2,
					"presentation_rect" : [ 35.43447900000001, 250.499990000000025, 47.0, 36.0 ],
					"text" : "attack time",
					"textcolor" : [ 0.501961, 0.501961, 0.501961, 1.0 ],
					"textjustification" : 1
				}

			}
, 			{
				"box" : 				{
					"fontname" : "Arial",
					"fontsize" : 13.0,
					"id" : "obj-15",
					"linecount" : 2,
					"maxclass" : "comment",
					"numinlets" : 1,
					"numoutlets" : 0,
					"patching_rect" : [ 333.990051999999991, 395.499990000000025, 48.0, 36.0 ],
					"presentation" : 1,
					"presentation_linecount" : 2,
					"presentation_rect" : [ 89.156707999999981, 250.499990000000025, 48.0, 36.0 ],
					"text" : "decay time",
					"textcolor" : [ 0.501961, 0.501961, 0.501961, 1.0 ],
					"textjustification" : 1
				}

			}
, 			{
				"box" : 				{
					"fontname" : "Arial",
					"fontsize" : 13.0,
					"id" : "obj-16",
					"linecount" : 2,
					"maxclass" : "comment",
					"numinlets" : 1,
					"numoutlets" : 0,
					"patching_rect" : [ 385.201171999999929, 395.499990000000025, 53.0, 36.0 ],
					"presentation" : 1,
					"presentation_linecount" : 2,
					"presentation_rect" : [ 140.367827999999918, 250.499990000000025, 53.0, 36.0 ],
					"text" : "sustain gain ",
					"textcolor" : [ 0.501961, 0.501961, 0.501961, 1.0 ],
					"textjustification" : 1
				}

			}
, 			{
				"box" : 				{
					"fontname" : "Arial",
					"fontsize" : 13.0,
					"id" : "obj-17",
					"linecount" : 2,
					"maxclass" : "comment",
					"numinlets" : 1,
					"numoutlets" : 0,
					"patching_rect" : [ 437.934509999999932, 395.499990000000025, 55.0, 36.0 ],
					"presentation" : 1,
					"presentation_linecount" : 2,
					"presentation_rect" : [ 193.101165999999921, 250.499990000000025, 55.0, 36.0 ],
					"text" : "release time",
					"textcolor" : [ 0.501961, 0.501961, 0.501961, 1.0 ],
					"textjustification" : 1
				}

			}
, 			{
				"box" : 				{
					"floatoutput" : 1,
					"id" : "obj-18",
					"maxclass" : "dial",
					"mult" : 0.01,
					"numinlets" : 1,
					"numoutlets" : 1,
					"outlettype" : [ "float" ],
					"parameter_enable" : 0,
					"patching_rect" : [ 396.433350000000019, 430.999990000000025, 30.535634999999999, 30.535634999999999 ],
					"presentation" : 1,
					"presentation_rect" : [ 143.367829000000029, 288.499990000000025, 47.0, 47.0 ],
					"size" : 100.0
				}

			}
, 			{
				"box" : 				{
					"id" : "obj-26",
					"maxclass" : "dial",
					"mult" : 10.0,
					"numinlets" : 1,
					"numoutlets" : 1,
					"outlettype" : [ "float" ],
					"parameter_enable" : 0,
					"patching_rect" : [ 450.166688000000022, 430.999990000000025, 30.535634999999999, 30.535634999999999 ],
					"presentation" : 1,
					"presentation_rect" : [ 197.101167000000032, 288.499990000000025, 47.0, 47.0 ],
					"size" : 200.0
				}

			}
, 			{
				"box" : 				{
					"id" : "obj-27",
					"maxclass" : "dial",
					"mult" : 10.0,
					"numinlets" : 1,
					"numoutlets" : 1,
					"outlettype" : [ "float" ],
					"parameter_enable" : 0,
					"patching_rect" : [ 342.722229000000084, 430.999990000000025, 30.535634999999999, 30.535634999999999 ],
					"presentation" : 1,
					"presentation_rect" : [ 89.656708000000094, 288.499990000000025, 47.0, 47.0 ],
					"size" : 100.0
				}

			}
, 			{
				"box" : 				{
					"id" : "obj-28",
					"maxclass" : "dial",
					"mult" : 10.0,
					"numinlets" : 1,
					"numoutlets" : 1,
					"outlettype" : [ "float" ],
					"parameter_enable" : 0,
					"patching_rect" : [ 288.5, 430.999990000000025, 30.535634999999999, 30.535634999999999 ],
					"presentation" : 1,
					"presentation_rect" : [ 35.43447900000001, 288.499990000000025, 47.0, 47.0 ],
					"size" : 200.0
				}

			}
, 			{
				"box" : 				{
					"id" : "obj-94",
					"maxclass" : "newobj",
					"numinlets" : 6,
					"numoutlets" : 1,
					"outlettype" : [ "multichannelsignal" ],
					"patching_rect" : [ 240.0, 493.0, 200.0, 22.0 ],
					"text" : "mc.poly~ transientSlice 8 @chans 8"
				}

			}
, 			{
				"box" : 				{
					"id" : "obj-86",
					"maxclass" : "newobj",
					"numinlets" : 1,
					"numoutlets" : 1,
					"outlettype" : [ "bang" ],
					"patching_rect" : [ 821.0, 333.0, 58.0, 22.0 ],
					"text" : "loadbang"
				}

			}
, 			{
				"box" : 				{
					"id" : "obj-58",
					"maxclass" : "newobj",
					"numinlets" : 1,
					"numoutlets" : 6,
					"outlettype" : [ "int", "int", "int", "int", "int", "int" ],
					"patching_rect" : [ 192.0, 152.0, 83.0, 22.0 ],
					"text" : "unpack i i i i i i"
				}

			}
, 			{
				"box" : 				{
					"id" : "obj-57",
					"maxclass" : "newobj",
					"numinlets" : 2,
					"numoutlets" : 2,
					"outlettype" : [ "", "" ],
					"patching_rect" : [ 192.0, 124.0, 92.0, 22.0 ],
					"text" : "route mpeevent"
				}

			}
, 			{
				"box" : 				{
					"id" : "obj-69",
					"maxclass" : "message",
					"numinlets" : 2,
					"numoutlets" : 1,
					"outlettype" : [ "" ],
					"patching_rect" : [ 821.0, 365.0, 111.0, 22.0 ],
					"text" : "spreadinclusive 0 1"
				}

			}
, 			{
				"box" : 				{
					"id" : "obj-67",
					"maxclass" : "newobj",
					"numinlets" : 1,
					"numoutlets" : 1,
					"outlettype" : [ "multichannelsignal" ],
					"patching_rect" : [ 821.0, 399.0, 128.0, 22.0 ],
					"text" : "mc.sig~ 0.5 @chans 8"
				}

			}
, 			{
				"box" : 				{
					"id" : "obj-54",
					"maxclass" : "newobj",
					"numinlets" : 1,
					"numoutlets" : 2,
					"outlettype" : [ "signal", "signal" ],
					"patching_rect" : [ 524.0, 576.0, 194.0, 22.0 ],
					"text" : "mc.unpack~ 2"
				}

			}
, 			{
				"box" : 				{
					"id" : "obj-53",
					"maxclass" : "newobj",
					"numinlets" : 2,
					"numoutlets" : 1,
					"outlettype" : [ "multichannelsignal" ],
					"patching_rect" : [ 524.0, 479.0, 275.0, 22.0 ],
					"text" : "mc.mixdown~ 2 @autogain 1 @pancontrolmode 1"
				}

			}
, 			{
				"box" : 				{
					"id" : "obj-5",
					"maxclass" : "newobj",
					"numinlets" : 1,
					"numoutlets" : 10,
					"outlettype" : [ "", "", "", "", "int", "", "int", "int", "int", "" ],
					"patching_rect" : [ 192.0, 93.0, 113.5, 22.0 ],
					"text" : "mpeparse"
				}

			}
, 			{
				"box" : 				{
					"id" : "obj-90",
					"maxclass" : "toggle",
					"numinlets" : 1,
					"numoutlets" : 1,
					"outlettype" : [ "int" ],
					"parameter_enable" : 0,
					"patching_rect" : [ 524.0, 323.267807500000004, 24.0, 24.0 ]
				}

			}
, 			{
				"box" : 				{
					"id" : "obj-87",
					"maxclass" : "message",
					"numinlets" : 2,
					"numoutlets" : 1,
					"outlettype" : [ "" ],
					"patching_rect" : [ 524.0, 354.267807500000004, 51.0, 22.0 ],
					"text" : "steal $1"
				}

			}
, 			{
				"box" : 				{
					"fontname" : "Arial",
					"fontsize" : 13.0,
					"id" : "obj-21",
					"maxclass" : "newobj",
					"numinlets" : 2,
					"numoutlets" : 1,
					"outlettype" : [ "" ],
					"patching_rect" : [ 252.5, 31.0, 55.0, 23.0 ],
					"text" : "midiinfo"
				}

			}
, 			{
				"box" : 				{
					"bgcolor" : [ 0.996078431372549, 0.47843137254902, 0.388235294117647, 1.0 ],
					"bgfillcolor_angle" : 270.0,
					"bgfillcolor_autogradient" : 0.0,
					"bgfillcolor_color" : [ 0.996078431372549, 0.47843137254902, 0.388235294117647, 1.0 ],
					"bgfillcolor_color1" : [ 0.301961, 0.301961, 0.301961, 1.0 ],
					"bgfillcolor_color2" : [ 0.2, 0.2, 0.2, 1.0 ],
					"bgfillcolor_proportion" : 0.5,
					"bgfillcolor_type" : "color",
					"fontface" : 0,
					"fontname" : "Arial",
					"fontsize" : 24.0,
					"id" : "obj-22",
					"items" : [ "IAC Driver Bus 1", ",", "to Max 1", ",", "to Max 2", ",", "Convolution Reverb.amxd" ],
					"maxclass" : "umenu",
					"numinlets" : 1,
					"numoutlets" : 3,
					"outlettype" : [ "int", "", "" ],
					"parameter_enable" : 0,
					"patching_rect" : [ 252.5, 58.0, 150.0, 35.0 ],
					"presentation" : 1,
					"presentation_rect" : [ 301.0, 41.0, 277.0, 35.0 ],
					"textcolor" : [ 0.062745098039216, 0.996078431372549, 0.67843137254902, 1.0 ]
				}

			}
, 			{
				"box" : 				{
					"fontname" : "Arial",
					"fontsize" : 13.0,
					"id" : "obj-12",
					"maxclass" : "newobj",
					"numinlets" : 1,
					"numoutlets" : 1,
					"outlettype" : [ "" ],
					"patching_rect" : [ 288.5, 3.0, 77.0, 23.0 ],
					"text" : "loadmess 0"
				}

			}
, 			{
				"box" : 				{
					"bgcolor" : [ 0.996078431372549, 0.988235294117647, 0.674509803921569, 1.0 ],
					"color" : [ 0.015686274509804, 0.992156862745098, 0.098039215686275, 1.0 ],
					"elementcolor" : [ 0.996078431372549, 0.0, 0.0, 1.0 ],
					"id" : "obj-9",
					"maxclass" : "ezdac~",
					"numinlets" : 2,
					"numoutlets" : 0,
					"patching_rect" : [ 524.0, 822.0, 135.666666666666629, 135.666666666666629 ],
					"presentation" : 1,
					"presentation_rect" : [ 301.0, 80.999990000000025, 277.0, 277.0 ]
				}

			}
, 			{
				"box" : 				{
					"fontname" : "Arial",
					"fontsize" : 13.0,
					"id" : "obj-20",
					"linecount" : 2,
					"maxclass" : "comment",
					"numinlets" : 1,
					"numoutlets" : 0,
					"patching_rect" : [ 606.43447900000001, 314.499990000000025, 47.0, 36.0 ],
					"presentation" : 1,
					"presentation_linecount" : 2,
					"presentation_rect" : [ 35.43447900000001, 140.499990000000025, 47.0, 36.0 ],
					"text" : "attack time",
					"textcolor" : [ 0.501961, 0.501961, 0.501961, 1.0 ],
					"textjustification" : 1
				}

			}
, 			{
				"box" : 				{
					"fontname" : "Arial",
					"fontsize" : 13.0,
					"id" : "obj-19",
					"linecount" : 2,
					"maxclass" : "comment",
					"numinlets" : 1,
					"numoutlets" : 0,
					"patching_rect" : [ 660.156707999999981, 314.499990000000025, 48.0, 36.0 ],
					"presentation" : 1,
					"presentation_linecount" : 2,
					"presentation_rect" : [ 89.156707999999981, 140.499990000000025, 48.0, 36.0 ],
					"text" : "decay time",
					"textcolor" : [ 0.501961, 0.501961, 0.501961, 1.0 ],
					"textjustification" : 1
				}

			}
, 			{
				"box" : 				{
					"fontname" : "Arial",
					"fontsize" : 13.0,
					"id" : "obj-7",
					"linecount" : 2,
					"maxclass" : "comment",
					"numinlets" : 1,
					"numoutlets" : 0,
					"patching_rect" : [ 711.367827999999918, 314.499990000000025, 53.0, 36.0 ],
					"presentation" : 1,
					"presentation_linecount" : 2,
					"presentation_rect" : [ 140.367827999999918, 140.499990000000025, 53.0, 36.0 ],
					"text" : "sustain gain ",
					"textcolor" : [ 0.501961, 0.501961, 0.501961, 1.0 ],
					"textjustification" : 1
				}

			}
, 			{
				"box" : 				{
					"fontname" : "Arial",
					"fontsize" : 13.0,
					"id" : "obj-73",
					"linecount" : 2,
					"maxclass" : "comment",
					"numinlets" : 1,
					"numoutlets" : 0,
					"patching_rect" : [ 764.101165999999921, 314.499990000000025, 55.0, 36.0 ],
					"presentation" : 1,
					"presentation_linecount" : 2,
					"presentation_rect" : [ 193.101165999999921, 140.499990000000025, 55.0, 36.0 ],
					"text" : "release time",
					"textcolor" : [ 0.501961, 0.501961, 0.501961, 1.0 ],
					"textjustification" : 1
				}

			}
, 			{
				"box" : 				{
					"floatoutput" : 1,
					"id" : "obj-74",
					"maxclass" : "dial",
					"mult" : 0.01,
					"numinlets" : 1,
					"numoutlets" : 1,
					"outlettype" : [ "float" ],
					"parameter_enable" : 0,
					"patching_rect" : [ 722.600006000000008, 349.999990000000025, 30.535634999999999, 30.535634999999999 ],
					"presentation" : 1,
					"presentation_rect" : [ 143.367829000000029, 178.499990000000025, 47.0, 47.0 ],
					"size" : 100.0
				}

			}
, 			{
				"box" : 				{
					"id" : "obj-23",
					"maxclass" : "dial",
					"mult" : 10.0,
					"numinlets" : 1,
					"numoutlets" : 1,
					"outlettype" : [ "float" ],
					"parameter_enable" : 0,
					"patching_rect" : [ 776.333344000000011, 349.999990000000025, 30.535634999999999, 30.535634999999999 ],
					"presentation" : 1,
					"presentation_rect" : [ 197.101167000000032, 178.499990000000025, 47.0, 47.0 ],
					"size" : 200.0
				}

			}
, 			{
				"box" : 				{
					"id" : "obj-24",
					"maxclass" : "dial",
					"mult" : 10.0,
					"numinlets" : 1,
					"numoutlets" : 1,
					"outlettype" : [ "float" ],
					"parameter_enable" : 0,
					"patching_rect" : [ 668.888885000000073, 349.999990000000025, 30.535634999999999, 30.535634999999999 ],
					"presentation" : 1,
					"presentation_rect" : [ 89.656708000000094, 178.499990000000025, 47.0, 47.000000000000028 ],
					"size" : 100.0
				}

			}
, 			{
				"box" : 				{
					"id" : "obj-25",
					"maxclass" : "dial",
					"mult" : 10.0,
					"numinlets" : 1,
					"numoutlets" : 1,
					"outlettype" : [ "float" ],
					"parameter_enable" : 0,
					"patching_rect" : [ 614.666655999999989, 349.999990000000025, 30.535634999999999, 30.535634999999999 ],
					"presentation" : 1,
					"presentation_rect" : [ 35.43447900000001, 178.499990000000025, 47.0, 47.000000000000028 ],
					"size" : 200.0
				}

			}
, 			{
				"box" : 				{
					"id" : "obj-13",
					"maxclass" : "newobj",
					"numinlets" : 1,
					"numoutlets" : 1,
					"outlettype" : [ "int" ],
					"patching_rect" : [ 192.0, 58.0, 40.0, 22.0 ],
					"text" : "midiin"
				}

			}
, 			{
				"box" : 				{
					"id" : "obj-11",
					"maxclass" : "newobj",
					"numinlets" : 1,
					"numoutlets" : 1,
					"outlettype" : [ "" ],
					"patching_rect" : [ 432.0, 261.0, 70.0, 22.0 ],
					"text" : "loadmess 1"
				}

			}
, 			{
				"box" : 				{
					"id" : "obj-8",
					"maxclass" : "toggle",
					"numinlets" : 1,
					"numoutlets" : 1,
					"outlettype" : [ "int" ],
					"parameter_enable" : 0,
					"patching_rect" : [ 432.0, 293.0, 24.0, 24.0 ]
				}

			}
, 			{
				"box" : 				{
					"id" : "obj-6",
					"maxclass" : "message",
					"numinlets" : 2,
					"numoutlets" : 1,
					"outlettype" : [ "" ],
					"patching_rect" : [ 432.0, 327.0, 64.0, 22.0 ],
					"text" : "parallel $1"
				}

			}
, 			{
				"box" : 				{
					"id" : "obj-4",
					"maxclass" : "newobj",
					"numinlets" : 7,
					"numoutlets" : 1,
					"outlettype" : [ "multichannelsignal" ],
					"patching_rect" : [ 524.0, 424.0, 190.0, 22.0 ],
					"text" : "mc.poly~ groove-poly 8 @chans 8"
				}

			}
, 			{
				"box" : 				{
					"bgcolor" : [ 0.603921568627451, 0.952941176470588, 0.96078431372549, 1.0 ],
					"bgcolor2" : [ 0.603921568627451, 0.952941176470588, 0.96078431372549, 1.0 ],
					"bgfillcolor_angle" : 270.0,
					"bgfillcolor_autogradient" : 0.0,
					"bgfillcolor_color" : [ 0.203921568627451, 0.772549019607843, 0.682352941176471, 1.0 ],
					"bgfillcolor_color1" : [ 0.603921568627451, 0.952941176470588, 0.96078431372549, 1.0 ],
					"bgfillcolor_color2" : [ 0.2, 0.2, 0.2, 1.0 ],
					"bgfillcolor_proportion" : 0.5,
					"bgfillcolor_type" : "color",
					"fontsize" : 24.0,
					"gradient" : 1,
					"id" : "obj-3",
					"maxclass" : "message",
					"numinlets" : 2,
					"numoutlets" : 1,
					"outlettype" : [ "" ],
					"patching_rect" : [ 11.0, 73.0, 117.0, 35.0 ],
					"presentation" : 1,
					"presentation_rect" : [ 36.0, 82.0, 117.0, 35.0 ],
					"text" : "readfolder",
					"textcolor" : [ 0.47843137254902, 0.996078431372549, 0.313725490196078, 1.0 ]
				}

			}
, 			{
				"box" : 				{
					"id" : "obj-1",
					"maxclass" : "newobj",
					"numinlets" : 1,
					"numoutlets" : 2,
					"outlettype" : [ "", "bang" ],
					"patching_rect" : [ 15.0, 152.0, 87.0, 22.0 ],
					"saved_object_attributes" : 					{
						"embed" : 0
					}
,
					"text" : "polybuffer~ src"
				}

			}
 ],
		"lines" : [ 			{
				"patchline" : 				{
					"destination" : [ "obj-4", 1 ],
					"order" : 1,
					"source" : [ "obj-1", 1 ]
				}

			}
, 			{
				"patchline" : 				{
					"destination" : [ "obj-48", 1 ],
					"order" : 0,
					"source" : [ "obj-1", 1 ]
				}

			}
, 			{
				"patchline" : 				{
					"destination" : [ "obj-94", 1 ],
					"order" : 2,
					"source" : [ "obj-1", 1 ]
				}

			}
, 			{
				"patchline" : 				{
					"destination" : [ "obj-4", 0 ],
					"source" : [ "obj-10", 0 ]
				}

			}
, 			{
				"patchline" : 				{
					"destination" : [ "obj-48", 0 ],
					"source" : [ "obj-10", 2 ]
				}

			}
, 			{
				"patchline" : 				{
					"destination" : [ "obj-94", 0 ],
					"source" : [ "obj-10", 1 ]
				}

			}
, 			{
				"patchline" : 				{
					"destination" : [ "obj-8", 0 ],
					"order" : 1,
					"source" : [ "obj-11", 0 ]
				}

			}
, 			{
				"patchline" : 				{
					"destination" : [ "obj-90", 0 ],
					"order" : 0,
					"source" : [ "obj-11", 0 ]
				}

			}
, 			{
				"patchline" : 				{
					"destination" : [ "obj-21", 1 ],
					"source" : [ "obj-12", 0 ]
				}

			}
, 			{
				"patchline" : 				{
					"destination" : [ "obj-5", 0 ],
					"source" : [ "obj-13", 0 ]
				}

			}
, 			{
				"patchline" : 				{
					"destination" : [ "obj-94", 4 ],
					"source" : [ "obj-18", 0 ]
				}

			}
, 			{
				"patchline" : 				{
					"destination" : [ "obj-10", 0 ],
					"source" : [ "obj-2", 0 ]
				}

			}
, 			{
				"patchline" : 				{
					"destination" : [ "obj-22", 0 ],
					"source" : [ "obj-21", 0 ]
				}

			}
, 			{
				"patchline" : 				{
					"destination" : [ "obj-13", 0 ],
					"source" : [ "obj-22", 1 ]
				}

			}
, 			{
				"patchline" : 				{
					"destination" : [ "obj-4", 5 ],
					"source" : [ "obj-23", 0 ]
				}

			}
, 			{
				"patchline" : 				{
					"destination" : [ "obj-4", 3 ],
					"source" : [ "obj-24", 0 ]
				}

			}
, 			{
				"patchline" : 				{
					"destination" : [ "obj-4", 2 ],
					"source" : [ "obj-25", 0 ]
				}

			}
, 			{
				"patchline" : 				{
					"destination" : [ "obj-94", 5 ],
					"source" : [ "obj-26", 0 ]
				}

			}
, 			{
				"patchline" : 				{
					"destination" : [ "obj-94", 3 ],
					"source" : [ "obj-27", 0 ]
				}

			}
, 			{
				"patchline" : 				{
					"destination" : [ "obj-94", 2 ],
					"source" : [ "obj-28", 0 ]
				}

			}
, 			{
				"patchline" : 				{
					"destination" : [ "obj-54", 0 ],
					"source" : [ "obj-29", 0 ]
				}

			}
, 			{
				"patchline" : 				{
					"destination" : [ "obj-1", 0 ],
					"source" : [ "obj-3", 0 ]
				}

			}
, 			{
				"patchline" : 				{
					"destination" : [ "obj-1", 0 ],
					"source" : [ "obj-33", 0 ]
				}

			}
, 			{
				"patchline" : 				{
					"destination" : [ "obj-48", 6 ],
					"source" : [ "obj-36", 0 ]
				}

			}
, 			{
				"patchline" : 				{
					"destination" : [ "obj-48", 6 ],
					"source" : [ "obj-39", 0 ]
				}

			}
, 			{
				"patchline" : 				{
					"destination" : [ "obj-53", 0 ],
					"source" : [ "obj-4", 0 ]
				}

			}
, 			{
				"patchline" : 				{
					"destination" : [ "obj-54", 0 ],
					"source" : [ "obj-40", 0 ]
				}

			}
, 			{
				"patchline" : 				{
					"destination" : [ "obj-46", 0 ],
					"source" : [ "obj-44", 0 ]
				}

			}
, 			{
				"patchline" : 				{
					"destination" : [ "obj-9", 1 ],
					"source" : [ "obj-45", 1 ]
				}

			}
, 			{
				"patchline" : 				{
					"destination" : [ "obj-9", 0 ],
					"source" : [ "obj-45", 0 ]
				}

			}
, 			{
				"patchline" : 				{
					"destination" : [ "obj-47", 0 ],
					"source" : [ "obj-46", 0 ]
				}

			}
, 			{
				"patchline" : 				{
					"destination" : [ "obj-40", 1 ],
					"source" : [ "obj-47", 0 ]
				}

			}
, 			{
				"patchline" : 				{
					"destination" : [ "obj-40", 0 ],
					"source" : [ "obj-48", 0 ]
				}

			}
, 			{
				"patchline" : 				{
					"destination" : [ "obj-2", 1 ],
					"order" : 0,
					"source" : [ "obj-5", 9 ]
				}

			}
, 			{
				"patchline" : 				{
					"destination" : [ "obj-57", 0 ],
					"order" : 1,
					"source" : [ "obj-5", 9 ]
				}

			}
, 			{
				"patchline" : 				{
					"destination" : [ "obj-36", 0 ],
					"source" : [ "obj-52", 0 ]
				}

			}
, 			{
				"patchline" : 				{
					"destination" : [ "obj-54", 0 ],
					"source" : [ "obj-53", 0 ]
				}

			}
, 			{
				"patchline" : 				{
					"destination" : [ "obj-45", 1 ],
					"source" : [ "obj-54", 1 ]
				}

			}
, 			{
				"patchline" : 				{
					"destination" : [ "obj-45", 0 ],
					"source" : [ "obj-54", 0 ]
				}

			}
, 			{
				"patchline" : 				{
					"destination" : [ "obj-39", 0 ],
					"source" : [ "obj-55", 0 ]
				}

			}
, 			{
				"patchline" : 				{
					"destination" : [ "obj-58", 0 ],
					"source" : [ "obj-57", 0 ]
				}

			}
, 			{
				"patchline" : 				{
					"destination" : [ "obj-2", 0 ],
					"source" : [ "obj-58", 2 ]
				}

			}
, 			{
				"patchline" : 				{
					"destination" : [ "obj-4", 0 ],
					"order" : 1,
					"source" : [ "obj-6", 0 ]
				}

			}
, 			{
				"patchline" : 				{
					"destination" : [ "obj-48", 0 ],
					"order" : 0,
					"source" : [ "obj-6", 0 ]
				}

			}
, 			{
				"patchline" : 				{
					"destination" : [ "obj-94", 0 ],
					"order" : 2,
					"source" : [ "obj-6", 0 ]
				}

			}
, 			{
				"patchline" : 				{
					"destination" : [ "obj-48", 4 ],
					"source" : [ "obj-63", 0 ]
				}

			}
, 			{
				"patchline" : 				{
					"destination" : [ "obj-48", 5 ],
					"source" : [ "obj-64", 0 ]
				}

			}
, 			{
				"patchline" : 				{
					"destination" : [ "obj-48", 3 ],
					"source" : [ "obj-65", 0 ]
				}

			}
, 			{
				"patchline" : 				{
					"destination" : [ "obj-48", 2 ],
					"source" : [ "obj-66", 0 ]
				}

			}
, 			{
				"patchline" : 				{
					"destination" : [ "obj-29", 1 ],
					"order" : 1,
					"source" : [ "obj-67", 0 ]
				}

			}
, 			{
				"patchline" : 				{
					"destination" : [ "obj-53", 1 ],
					"order" : 0,
					"source" : [ "obj-67", 0 ]
				}

			}
, 			{
				"patchline" : 				{
					"destination" : [ "obj-52", 0 ],
					"source" : [ "obj-68", 0 ]
				}

			}
, 			{
				"patchline" : 				{
					"destination" : [ "obj-67", 0 ],
					"source" : [ "obj-69", 0 ]
				}

			}
, 			{
				"patchline" : 				{
					"destination" : [ "obj-55", 0 ],
					"source" : [ "obj-70", 0 ]
				}

			}
, 			{
				"patchline" : 				{
					"destination" : [ "obj-4", 4 ],
					"source" : [ "obj-74", 0 ]
				}

			}
, 			{
				"patchline" : 				{
					"destination" : [ "obj-6", 0 ],
					"source" : [ "obj-8", 0 ]
				}

			}
, 			{
				"patchline" : 				{
					"destination" : [ "obj-69", 0 ],
					"source" : [ "obj-86", 0 ]
				}

			}
, 			{
				"patchline" : 				{
					"destination" : [ "obj-4", 0 ],
					"order" : 1,
					"source" : [ "obj-87", 0 ]
				}

			}
, 			{
				"patchline" : 				{
					"destination" : [ "obj-48", 0 ],
					"order" : 0,
					"source" : [ "obj-87", 0 ]
				}

			}
, 			{
				"patchline" : 				{
					"destination" : [ "obj-94", 0 ],
					"order" : 2,
					"source" : [ "obj-87", 0 ]
				}

			}
, 			{
				"patchline" : 				{
					"destination" : [ "obj-87", 0 ],
					"source" : [ "obj-90", 0 ]
				}

			}
, 			{
				"patchline" : 				{
					"destination" : [ "obj-29", 0 ],
					"source" : [ "obj-94", 0 ]
				}

			}
 ],
		"parameters" : 		{
			"obj-45" : [ "amxd~", "amxd~", 0 ],
			"parameterbanks" : 			{

			}

		}
,
		"dependency_cache" : [ 			{
				"name" : "groove-poly.maxpat",
				"bootpath" : "~/GitHub/PE3/VG.PE3/patchers",
				"patcherrelativepath" : ".",
				"type" : "JSON",
				"implicit" : 1
			}
, 			{
				"name" : "midimap1.txt",
				"bootpath" : "~/GitHub/PE3/VG.PE3/data",
				"patcherrelativepath" : "../data",
				"type" : "TEXT",
				"implicit" : 1
			}
, 			{
				"name" : "transientSlice.maxpat",
				"bootpath" : "~/GitHub/PE3/VG.PE3/patchers",
				"patcherrelativepath" : ".",
				"type" : "JSON",
				"implicit" : 1
			}
, 			{
				"name" : "Convolution Reverb.amxd.maxsnap",
				"bootpath" : "~/GitHub/PE3/VG.PE3/data",
				"patcherrelativepath" : "../data",
				"type" : "mx@s",
				"implicit" : 1
			}
, 			{
				"name" : "Convolution Reverb.amxd",
				"bootpath" : "~/GitHub/PE3/VG.PE3/patchers",
				"patcherrelativepath" : ".",
				"type" : "amxd",
				"implicit" : 1
			}
, 			{
				"name" : "percussionSlice.maxpat",
				"bootpath" : "~/GitHub/PE3/VG.PE3/patchers",
				"patcherrelativepath" : ".",
				"type" : "JSON",
				"implicit" : 1
			}
, 			{
				"name" : "fluid.buftransientslice~.mxo",
				"type" : "iLaX"
			}
, 			{
				"name" : "iraverage~.mxo",
				"type" : "iLaX"
			}
, 			{
				"name" : "recursivefolder.mxo",
				"type" : "iLaX"
			}
, 			{
				"name" : "irdisplay~.mxo",
				"type" : "iLaX"
			}
, 			{
				"name" : "morphfilter~.mxo",
				"type" : "iLaX"
			}
, 			{
				"name" : "irstats~.mxo",
				"type" : "iLaX"
			}
, 			{
				"name" : "bufresample~.mxo",
				"type" : "iLaX"
			}
, 			{
				"name" : "multiconvolve~.mxo",
				"type" : "iLaX"
			}
, 			{
				"name" : "fluid.bufampslice~.mxo",
				"type" : "iLaX"
			}
 ],
		"autosave" : 0,
		"styles" : [ 			{
				"name" : "max6box",
				"default" : 				{
					"accentcolor" : [ 0.8, 0.839216, 0.709804, 1.0 ],
					"bgcolor" : [ 1.0, 1.0, 1.0, 0.5 ],
					"textcolor_inverse" : [ 0.0, 0.0, 0.0, 1.0 ]
				}
,
				"parentstyle" : "",
				"multi" : 0
			}
, 			{
				"name" : "max6inlet",
				"default" : 				{
					"color" : [ 0.423529, 0.372549, 0.27451, 1.0 ]
				}
,
				"parentstyle" : "",
				"multi" : 0
			}
, 			{
				"name" : "max6message",
				"default" : 				{
					"bgfillcolor" : 					{
						"type" : "gradient",
						"color1" : [ 0.866667, 0.866667, 0.866667, 1.0 ],
						"color2" : [ 0.788235, 0.788235, 0.788235, 1.0 ],
						"color" : [ 0.290196, 0.309804, 0.301961, 1.0 ],
						"angle" : 270.0,
						"proportion" : 0.39,
						"autogradient" : 0
					}
,
					"textcolor_inverse" : [ 0.0, 0.0, 0.0, 1.0 ]
				}
,
				"parentstyle" : "max6box",
				"multi" : 0
			}
, 			{
				"name" : "max6outlet",
				"default" : 				{
					"color" : [ 0.0, 0.454902, 0.498039, 1.0 ]
				}
,
				"parentstyle" : "",
				"multi" : 0
			}
 ]
	}

}
